<?xml version="1.0" encoding="UTF-8"?>
<!-- Generated by Pixelmator Pro 3.7.1 -->
<svg width="1024" height="1064" viewBox="0 0 1024 1064" xmlns="http://www.w3.org/2000/svg">
    <path id="Rectangle" fill="#1a1f35" fill-rule="evenodd" stroke="#b2b2b2" stroke-width="3" stroke-linecap="round" stroke-dasharray="0 6" stroke-dashoffset="0" d="M 0 1064 L 1024 1064 L 1024 0 L 0 0 Z"/>
    <g id="Group">
        <g id="g1" opacity="0.8">
            <path id="Path" fill="none" stroke="#4a72f0" stroke-width="10.684694" d="M 147.504623 182.420227 L 283.491638 114.426697 L 322.345062 260.127075 Z"/>
            <path id="path1" fill="none" stroke="#4a72f0" stroke-width="10.684694" d="M 283.491638 114.426697 L 438.905365 153.280151 L 322.345062 260.127075 Z M 322.345062 260.127075 L 438.905365 153.280151 L 409.765289 308.693909 Z M 147.504623 182.420227 L 322.345062 260.127075 L 205.784775 328.120605 Z M 205.784775 328.120605 L 322.345062 260.127075 L 273.77829 396.114136 Z"/>
            <path id="path2" fill="none" stroke="#4a72f0" stroke-width="10.684694" d="M 322.345062 260.127075 L 409.765289 308.693909 L 273.77829 396.114136 Z"/>
        </g>
        <path id="path3" fill="#4a72f0" stroke="none" d="M 166.931335 182.420227 C 166.931335 193.149292 158.233704 201.846924 147.504623 201.846924 C 136.775528 201.846924 128.077896 193.149292 128.077896 182.420227 C 128.077896 171.691162 136.775528 162.99353 147.504623 162.99353 C 158.233704 162.99353 166.931335 171.691162 166.931335 182.420227 Z"/>
        <path id="path4" fill="#4a72f0" stroke="none" d="M 302.918365 114.426697 C 302.918365 125.155762 294.220703 133.853455 283.491638 133.853455 C 272.762573 133.853455 264.064911 125.155762 264.064911 114.426697 C 264.064911 103.697632 272.762573 95 283.491638 95 C 294.220703 95 302.918365 103.697632 302.918365 114.426697 Z"/>
        <path id="path5" fill="#4a72f0" stroke="none" d="M 458.332092 153.280151 C 458.332092 164.009216 449.63443 172.706848 438.905365 172.706848 C 428.1763 172.706848 419.478638 164.009216 419.478638 153.280151 C 419.478638 142.551086 428.1763 133.853455 438.905365 133.853455 C 449.63443 133.853455 458.332092 142.551086 458.332092 153.280151 Z"/>
        <path id="path6" fill="#4a72f0" stroke="none" d="M 346.628479 260.127075 C 346.628479 273.538391 335.756409 284.410461 322.345062 284.410461 C 308.933746 284.410461 298.061676 273.538391 298.061676 260.127075 C 298.061676 246.715698 308.933746 235.843689 322.345062 235.843689 C 335.756409 235.843689 346.628479 246.715698 346.628479 260.127075 Z"/>
        <path id="path7" fill="#4a72f0" stroke="none" d="M 225.211487 328.120605 C 225.211487 338.84967 216.51384 347.547302 205.784775 347.547302 C 195.055679 347.547302 186.358047 338.84967 186.358047 328.120605 C 186.358047 317.391541 195.055679 308.693909 205.784775 308.693909 C 216.51384 308.693909 225.211487 317.391541 225.211487 328.120605 Z"/>
        <path id="path8" fill="#4a72f0" stroke="none" d="M 429.192017 308.693909 C 429.192017 319.422974 420.494354 328.120605 409.765289 328.120605 C 399.036224 328.120605 390.338562 319.422974 390.338562 308.693909 C 390.338562 297.964783 399.036224 289.267151 409.765289 289.267151 C 420.494354 289.267151 429.192017 297.964783 429.192017 308.693909 Z"/>
        <path id="path9" fill="#4a72f0" stroke="none" d="M 293.204987 396.114136 C 293.204987 406.843201 284.507355 415.540833 273.77829 415.540833 C 263.049194 415.540833 254.351563 406.843201 254.351563 396.114136 C 254.351563 385.38501 263.049194 376.687378 273.77829 376.687378 C 284.507355 376.687378 293.204987 385.38501 293.204987 396.114136 Z"/>
        <g id="g2" opacity="0.8">
            <path id="path10" fill="none" stroke="#22a882" stroke-width="10.684694" d="M 691.452698 114.426697 L 837.153076 172.706848 L 749.732849 269.840454 Z M 837.153076 172.706848 L 905.146545 289.267151 L 749.732849 269.840454 Z M 749.732849 269.840454 L 905.146545 289.267151 L 817.726318 376.687378 Z"/>
            <path id="path11" fill="none" stroke="#22a882" stroke-width="10.684694" d="M 613.745789 211.560303 L 691.452698 114.426697 L 749.732849 269.840454 Z M 613.745789 211.560303 L 749.732849 269.840454 L 662.312622 357.260681 Z M 662.312622 357.260681 L 749.732849 269.840454 L 817.726318 376.687378 Z"/>
        </g>
        <path id="path12" fill="#22a882" stroke="none" d="M 710.879395 114.426697 C 710.879395 125.155762 702.181763 133.853455 691.452698 133.853455 C 680.723633 133.853455 672.02594 125.155762 672.02594 114.426697 C 672.02594 103.697632 680.723633 95 691.452698 95 C 702.181763 95 710.879395 103.697632 710.879395 114.426697 Z"/>
        <path id="path13" fill="#22a882" stroke="none" d="M 856.579773 172.706848 C 856.579773 183.435913 847.882141 192.133606 837.153076 192.133606 C 826.424011 192.133606 817.726318 183.435913 817.726318 172.706848 C 817.726318 161.977783 826.424011 153.280151 837.153076 153.280151 C 847.882141 153.280151 856.579773 161.977783 856.579773 172.706848 Z"/>
        <path id="path14" fill="#22a882" stroke="none" d="M 924.573303 289.267151 C 924.573303 299.996216 915.87561 308.693909 905.146545 308.693909 C 894.41748 308.693909 885.719849 299.996216 885.719849 289.267151 C 885.719849 278.538086 894.41748 269.840454 905.146545 269.840454 C 915.87561 269.840454 924.573303 278.538086 924.573303 289.267151 Z"/>
        <path id="path15" fill="#22a882" stroke="none" d="M 774.016235 269.840454 C 774.016235 283.25177 763.144226 294.12384 749.732849 294.12384 C 736.321472 294.12384 725.449463 283.25177 725.449463 269.840454 C 725.449463 256.429077 736.321472 245.557068 749.732849 245.557068 C 763.144226 245.557068 774.016235 256.429077 774.016235 269.840454 Z"/>
        <path id="path16" fill="#22a882" stroke="none" d="M 633.172546 211.560303 C 633.172546 222.289368 624.474915 230.987 613.745789 230.987 C 603.016724 230.987 594.319092 222.289368 594.319092 211.560303 C 594.319092 200.831238 603.016724 192.133606 613.745789 192.133606 C 624.474915 192.133606 633.172546 200.831238 633.172546 211.560303 Z"/>
        <path id="path17" fill="#22a882" stroke="none" d="M 681.739319 357.260681 C 681.739319 367.989746 673.041687 376.687378 662.312622 376.687378 C 651.583557 376.687378 642.885864 367.989746 642.885864 357.260681 C 642.885864 346.531616 651.583557 337.833984 662.312622 337.833984 C 673.041687 337.833984 681.739319 346.531616 681.739319 357.260681 Z"/>
        <path id="path18" fill="#22a882" stroke="none" d="M 837.153076 376.687378 C 837.153076 387.416443 828.455383 396.114136 817.726318 396.114136 C 806.997253 396.114136 798.299622 387.416443 798.299622 376.687378 C 798.299622 365.958313 806.997253 357.260681 817.726318 357.260681 C 828.455383 357.260681 837.153076 365.958313 837.153076 376.687378 Z"/>
        <g id="g3" opacity="0.8">
            <path id="path19" fill="none" stroke="#d45e30" stroke-width="10.684694" d="M 98.937828 687.514893 L 225.211487 619.521362 L 283.491638 755.508362 Z"/>
            <path id="path20" fill="none" stroke="#d45e30" stroke-width="10.684694" d="M 225.211487 619.521362 L 370.911865 677.801514 L 283.491638 755.508362 Z M 283.491638 755.508362 L 370.911865 677.801514 L 351.485138 823.501892 Z M 98.937828 687.514893 L 283.491638 755.508362 L 166.931335 842.928589 Z M 166.931335 842.928589 L 283.491638 755.508362 L 234.92485 910.922119 Z"/>
            <path id="path21" fill="none" stroke="#d45e30" stroke-width="10.684694" d="M 283.491638 755.508362 L 351.485138 823.501892 L 234.92485 910.922119 Z"/>
        </g>
        <path id="path22" fill="#d45e30" stroke="none" d="M 118.364548 687.514893 C 118.364548 698.243896 109.666916 706.941528 98.937828 706.941528 C 88.20874 706.941528 79.511108 698.243896 79.511108 687.514893 C 79.511108 676.785767 88.20874 668.088135 98.937828 668.088135 C 109.666916 668.088135 118.364548 676.785767 118.364548 687.514893 Z"/>
        <path id="path23" fill="#d45e30" stroke="none" d="M 244.638199 619.521362 C 244.638199 630.250427 235.940552 638.948059 225.211487 638.948059 C 214.482422 638.948059 205.784775 630.250427 205.784775 619.521362 C 205.784775 608.792236 214.482422 600.094604 225.211487 600.094604 C 235.940552 600.094604 244.638199 608.792236 244.638199 619.521362 Z"/>
        <path id="path24" fill="#d45e30" stroke="none" d="M 390.338562 677.801514 C 390.338562 688.530579 381.64093 697.22821 370.911865 697.22821 C 360.1828 697.22821 351.485138 688.530579 351.485138 677.801514 C 351.485138 667.072388 360.1828 658.374756 370.911865 658.374756 C 381.64093 658.374756 390.338562 667.072388 390.338562 677.801514 Z"/>
        <path id="path25" fill="#d45e30" stroke="none" d="M 307.775024 755.508362 C 307.775024 768.919739 296.902985 779.791748 283.491638 779.791748 C 270.080292 779.791748 259.208252 768.919739 259.208252 755.508362 C 259.208252 742.096985 270.080292 731.224976 283.491638 731.224976 C 296.902985 731.224976 307.775024 742.096985 307.775024 755.508362 Z"/>
        <path id="path26" fill="#d45e30" stroke="none" d="M 186.358047 842.928589 C 186.358047 853.657654 177.660431 862.355286 166.931335 862.355286 C 156.202255 862.355286 147.504623 853.657654 147.504623 842.928589 C 147.504623 832.199524 156.202255 823.501892 166.931335 823.501892 C 177.660431 823.501892 186.358047 832.199524 186.358047 842.928589 Z"/>
        <path id="path27" fill="#d45e30" stroke="none" d="M 370.911865 823.501892 C 370.911865 834.230957 362.214203 842.928589 351.485138 842.928589 C 340.756073 842.928589 332.058441 834.230957 332.058441 823.501892 C 332.058441 812.772827 340.756073 804.075195 351.485138 804.075195 C 362.214203 804.075195 370.911865 812.772827 370.911865 823.501892 Z"/>
        <path id="path28" fill="#d45e30" stroke="none" d="M 254.351563 910.922119 C 254.351563 921.651184 245.653915 930.348816 234.92485 930.348816 C 224.19577 930.348816 215.498123 921.651184 215.498123 910.922119 C 215.498123 900.192993 224.19577 891.495361 234.92485 891.495361 C 245.653915 891.495361 254.351563 900.192993 254.351563 910.922119 Z"/>
        <path id="path29" fill="none" stroke="#ffffff" stroke-width="11.656031" stroke-linecap="round" stroke-linejoin="round" opacity="0.85" d="M 351.485138 425.254211 C 422.716441 515.912211 484.234375 587.143494 536.03894 638.948059"/>
        <path id="path30" fill="none" stroke="#dddde1" stroke-width="11.65603" stroke-linecap="round" d="M 462.603027 636.934692 L 464.452728 636.934692 C 480.596283 636.934692 499.659363 644.547485 515.499878 648.018921 C 530.102234 651.219666 540.972839 661.008179 547.742371 643.836914 C 557.130859 620.027649 557.160889 596.899719 557.984131 571.450195"/>
        <path id="path31" fill="none" stroke="#dddde1" stroke-width="11.65603" stroke-linecap="round" d="M 474.161346 715.426514 L 476.976227 716.460449 C 502.411224 725.801636 524.078613 741.531494 548.468628 752.411987 C 552.188354 754.071533 556.378174 753.883545 550.176208 755.980957 C 521.87262 765.553955 506.793121 787.516724 488.093475 809.195068"/>
        <path id="path32" fill="none" stroke="#ffffff" stroke-width="11.656031" stroke-linecap="round" stroke-linejoin="round" opacity="0.85" d="M 672.02594 386.400757 C 672.02594 483.534342 665.550374 564.479004 652.599243 629.234741"/>
        <path id="path33" fill="none" stroke="#dddde1" stroke-width="11.65603" stroke-linecap="round" d="M 617.400208 556.839844 L 618.932129 558.291138 C 625.9646 564.956543 629.069458 582.800781 632.486877 591.668335 C 636.666626 602.512878 640.821716 623.371887 650.238342 630.950806 C 654.264221 634.190918 667.984863 619.937134 670.241455 617.798889 C 687.082275 601.841858 702.857971 584.111572 715.591431 564.793579"/>
        <path id="path34" fill="none" stroke="#ffffff" stroke-width="11.656031" stroke-linecap="round" stroke-linejoin="round" opacity="0.85" d="M 361.198517 755.508362 C 419.478648 768.459493 477.758789 768.459493 536.03894 755.508362"/>
        <g id="g4">
            <g id="g5" opacity="0.95">
                <path id="path35" fill="none" stroke="#ffffff" stroke-width="13.598701" d="M 681.739319 716.654907 L 778.872925 668.088135 L 827.439697 794.361816 Z"/>
                <path id="path36" fill="none" stroke="#ffffff" stroke-width="13.598701" d="M 778.872925 668.088135 L 876.00647 726.368286 L 827.439697 794.361816 Z M 681.739319 716.654907 L 827.439697 794.361816 L 740.01947 872.068665 Z M 827.439697 794.361816 L 876.00647 726.368286 L 924.573303 852.641968 Z M 827.439697 794.361816 L 924.573303 852.641968 L 846.866394 920.635437 Z M 740.01947 872.068665 L 827.439697 794.361816 L 778.872925 949.775513 Z"/>
                <path id="path37" fill="none" stroke="#ffffff" stroke-width="13.598701" d="M 778.872925 949.775513 L 827.439697 794.361816 L 846.866394 920.635437 Z M 681.739319 716.654907 L 740.01947 872.068665 L 633.172546 852.641968 Z M 633.172546 852.641968 L 740.01947 872.068665 L 672.02594 949.775513 Z"/>
            </g>
            <path id="path38" fill="#ffffff" stroke="none" d="M 703.59436 716.654907 C 703.59436 728.725159 693.809509 738.51001 681.739319 738.51001 C 669.669067 738.51001 659.884277 728.725159 659.884277 716.654907 C 659.884277 704.584717 669.669067 694.799866 681.739319 694.799866 C 693.809509 694.799866 703.59436 704.584717 703.59436 716.654907 Z"/>
            <path id="path39" fill="#ffffff" stroke="none" d="M 798.299622 668.088135 C 798.299622 678.8172 789.60199 687.514893 778.872925 687.514893 C 768.14386 687.514893 759.446167 678.8172 759.446167 668.088135 C 759.446167 657.35907 768.14386 648.661438 778.872925 648.661438 C 789.60199 648.661438 798.299622 657.35907 798.299622 668.088135 Z"/>
            <path id="path40" fill="#ffffff" stroke="none" d="M 895.433228 726.368286 C 895.433228 737.097351 886.735535 745.795044 876.00647 745.795044 C 865.277405 745.795044 856.579773 737.097351 856.579773 726.368286 C 856.579773 715.639221 865.277405 706.941528 876.00647 706.941528 C 886.735535 706.941528 895.433228 715.639221 895.433228 726.368286 Z"/>
            <path id="path41" fill="#ffffff" stroke="none" d="M 856.579773 794.361816 C 856.579773 810.455383 843.533325 823.501892 827.439697 823.501892 C 811.346069 823.501892 798.299622 810.455383 798.299622 794.361816 C 798.299622 778.268188 811.346069 765.22168 827.439697 765.22168 C 843.533325 765.22168 856.579773 778.268188 856.579773 794.361816 Z"/>
            <path id="path42" fill="#ffffff" stroke="none" d="M 759.446167 872.068665 C 759.446167 882.797729 750.748535 891.495361 740.01947 891.495361 C 729.290405 891.495361 720.592773 882.797729 720.592773 872.068665 C 720.592773 861.3396 729.290405 852.641968 740.01947 852.641968 C 750.748535 852.641968 759.446167 861.3396 759.446167 872.068665 Z"/>
            <path id="path43" fill="#ffffff" stroke="none" d="M 944 852.641968 C 944 863.371033 935.302368 872.068665 924.573303 872.068665 C 913.844238 872.068665 905.146545 863.371033 905.146545 852.641968 C 905.146545 841.912842 913.844238 833.21521 924.573303 833.21521 C 935.302368 833.21521 944 841.912842 944 852.641968 Z"/>
            <path id="path44" fill="#ffffff" stroke="none" d="M 866.293152 920.635437 C 866.293152 931.364502 857.595459 940.062195 846.866394 940.062195 C 836.137329 940.062195 827.439697 931.364502 827.439697 920.635437 C 827.439697 909.906372 836.137329 901.20874 846.866394 901.20874 C 857.595459 901.20874 866.293152 909.906372 866.293152 920.635437 Z"/>
            <path id="path45" fill="#ffffff" stroke="none" d="M 798.299622 949.775513 C 798.299622 960.504578 789.60199 969.202271 778.872925 969.202271 C 768.14386 969.202271 759.446167 960.504578 759.446167 949.775513 C 759.446167 939.046448 768.14386 930.348816 778.872925 930.348816 C 789.60199 930.348816 798.299622 939.046448 798.299622 949.775513 Z"/>
            <path id="path46" fill="#ffffff" stroke="none" d="M 652.599243 852.641968 C 652.599243 863.371033 643.901611 872.068665 633.172546 872.068665 C 622.443481 872.068665 613.745789 863.371033 613.745789 852.641968 C 613.745789 841.912842 622.443481 833.21521 633.172546 833.21521 C 643.901611 833.21521 652.599243 841.912842 652.599243 852.641968 Z"/>
            <path id="path47" fill="#ffffff" stroke="none" d="M 691.452698 949.775513 C 691.452698 960.504578 682.755066 969.202271 672.02594 969.202271 C 661.296875 969.202271 652.599243 960.504578 652.599243 949.775513 C 652.599243 939.046448 661.296875 930.348816 672.02594 930.348816 C 682.755066 930.348816 691.452698 939.046448 691.452698 949.775513 Z"/>
            <g id="g6" opacity="0.65">
                <path id="path48" fill="none" stroke="#ffffff" stroke-width="9.713358" d="M 827.439697 794.361816 L 827.439697 726.368286 M 827.439697 794.361816 L 895.433228 750.651672 M 827.439697 794.361816 L 885.719849 842.928589 M 827.439697 794.361816 L 764.302856 736.081665 M 827.439697 794.361816 L 759.446167 818.645203"/>
            </g>
        </g>
    </g>
</svg>
